<svg xmlns="http://www.w3.org/2000/svg" viewBox="0 0 35.89 34.25"><defs><style>.cls-1{fill:#fff;}.cls-2{fill:none;stroke:#f6b776;stroke-miterlimit:10;stroke-width:2px;}</style></defs><g id="Capa_2" data-name="Capa 2"><g id="Layer_1" data-name="Layer 1"><path class="cls-1" d="M19.05.69,23.64,10a1.23,1.23,0,0,0,.93.67l10.26,1.49a1.23,1.23,0,0,1,.68,2.1L28.09,21.5a1.19,1.19,0,0,0-.36,1.08l1.75,10.23a1.23,1.23,0,0,1-1.78,1.3l-9.18-4.83a1.23,1.23,0,0,0-1.15,0L8.19,34.11a1.24,1.24,0,0,1-1.79-1.3L8.16,22.58A1.25,1.25,0,0,0,7.8,21.5L.37,14.25a1.23,1.23,0,0,1,.69-2.1l10.26-1.49a1.25,1.25,0,0,0,.93-.67L16.84.69A1.23,1.23,0,0,1,19.05.69Z"/><line class="cls-2" x1="12.23" y1="19.01" x2="23.65" y2="19.01"/><line class="cls-2" x1="17.94" y1="13.3" x2="17.94" y2="24.72"/></g></g></svg>