<svg xmlns="http://www.w3.org/2000/svg" viewBox="0 0 67.9 67.9"><defs><style>.cls-1{fill:#f6b776;}.cls-2{fill:none;stroke:#fff;stroke-linecap:round;stroke-miterlimit:10;stroke-width:2px;}.cls-3{fill:#fff;}</style></defs><g id="Capa_2" data-name="Capa 2"><g id="Layer_1" data-name="Layer 1"><circle class="cls-1" cx="33.95" cy="33.95" r="33.95"/><line class="cls-2" x1="40.31" y1="47.75" x2="51.07" y2="47.75"/><line class="cls-2" x1="45.69" y1="42.36" x2="45.69" y2="53.13"/><path class="cls-3" d="M18.78,23.82h6a0,0,0,0,1,0,0V36.61a0,0,0,0,1,0,0h-6a4.32,4.32,0,0,1-4.32-4.32V28.14a4.32,4.32,0,0,1,4.32-4.32Z" transform="translate(-7.11 6.05) rotate(-14.89)"/><path class="cls-3" d="M28.53,47.92l-1.26.33a1.73,1.73,0,0,1-1.91-.73L19.83,39l7.07-1.88,2.84,8.61A1.75,1.75,0,0,1,28.53,47.92Z"/><path class="cls-3" d="M45.16,36a34.16,34.16,0,0,0-16.76-1.6q-1.63-6.18-3.28-12.35a28.85,28.85,0,0,0,7.25-3.7,29,29,0,0,0,6.42-6.23,1.71,1.71,0,0,1,1.47-.21,1.57,1.57,0,0,1,1,1.09l5.59,21A1.59,1.59,0,0,1,45.16,36Z"/></g></g></svg>