<svg xmlns="http://www.w3.org/2000/svg" viewBox="0 0 213.8 240"><defs><style>.cls-1{fill:#313139;}.cls-2{fill:#f6b776;}</style></defs><g id="Capa_2" data-name="Capa 2"><g id="Layer_1" data-name="Layer 1"><path class="cls-1" d="M30.3,231.53v-10h-12v-7.57H39.48v25.4H16.77c-.76-.12-1.4-.21-1.94-.26a12.79,12.79,0,0,1-1.81-.36q-1-.27-2.79-.93a16,16,0,0,1-4.49-3,15.09,15.09,0,0,1-4.22-6.68A28.2,28.2,0,0,1,0,218.71v-2.57a22.51,22.51,0,0,1,.72-5.84,23.55,23.55,0,0,1,1.9-5,17.37,17.37,0,0,1,2.84-4,18.08,18.08,0,0,1,4.83-3.31q3.18-1.6,9.87-1.61H39.48v7.46H20.16A9.38,9.38,0,0,0,14,205.74a9.65,9.65,0,0,0-3.1,4.92,25.18,25.18,0,0,0-.89,6.92v.65c0,4.18.7,7.44,2.12,9.78s4.08,3.52,8,3.52Z"/><path class="cls-1" d="M56.24,239.34H48V207.91H62A11.93,11.93,0,0,1,67.69,209a4.83,4.83,0,0,1,2.44,2.92,19.09,19.09,0,0,1,.54,5.13v4H62.8v-2.5a11.21,11.21,0,0,0-.3-3.25,1.79,1.79,0,0,0-1.13-1.1c-.52-.08-1-.14-1.37-.18s-1.06-.06-2-.06H56.24Z"/><path class="cls-1" d="M103.89,232.84v6.5H91.78q-8,0-12-4.29T75.92,223.6q0-7.15,3-10.53a13.83,13.83,0,0,1,6.11-4.26,23.83,23.83,0,0,1,6.71-.9h12.11v6.5h-11a16.9,16.9,0,0,0-4.24.42,4.19,4.19,0,0,0-2.44,1.73,6,6,0,0,0-1.08,3.82h18.73V227H85.16a6.66,6.66,0,0,0,.87,3.73,4.38,4.38,0,0,0,2.47,1.76,21.21,21.21,0,0,0,4.36.35Z"/><path class="cls-1" d="M119.22,239.34H111V207.91h31.78a24.62,24.62,0,0,1,5.61.6,11.37,11.37,0,0,1,4,1.94,8.3,8.3,0,0,1,2.53,3.46,14.54,14.54,0,0,1,.89,5.51v19.92h-8.29V220.5a9.12,9.12,0,0,0-.56-3.64,3,3,0,0,0-1.82-1.67,9.22,9.22,0,0,0-2.92-.42h-4.71v24.57H129V214.77h-9.78Z"/><path class="cls-1" d="M165,196.46h8.59v7.82H165Zm0,11.45h8.59v31.43H165Z"/><path class="cls-1" d="M209.15,235.59a14,14,0,0,1-4.65,2.95,25.68,25.68,0,0,1-4,1.16,18.12,18.12,0,0,1-3.34.3,19.69,19.69,0,0,1-6.56-1.16,15.1,15.1,0,0,1-5.45-3.25A12.59,12.59,0,0,1,182,231a25.25,25.25,0,0,1-1.25-4.05,18.06,18.06,0,0,1-.3-3.37,15.76,15.76,0,0,1,.93-5.76,20.35,20.35,0,0,1,1.73-3.6,18.68,18.68,0,0,1,2.5-3,13.52,13.52,0,0,1,4.83-2.86,19.27,19.27,0,0,1,6.71-1.16,19.59,19.59,0,0,1,6.53,1.1,13.37,13.37,0,0,1,4.89,2.8,18.22,18.22,0,0,1,2.6,3,20.6,20.6,0,0,1,1.73,3.57,16.58,16.58,0,0,1,.89,5.88,18.72,18.72,0,0,1-1.16,6.53A15.07,15.07,0,0,1,209.15,235.59Zm-14.79-2.87a4.31,4.31,0,0,0,1.22.36,9.27,9.27,0,0,0,1.46.12,7.89,7.89,0,0,0,4.66-1.49,7.11,7.11,0,0,0,2.77-3.64,14.11,14.11,0,0,0,.68-4.35A12.26,12.26,0,0,0,204,218.2a7,7,0,0,0-3.73-3.43,9.25,9.25,0,0,0-3-.59,8.93,8.93,0,0,0-3.22.65,8.63,8.63,0,0,0-2.68,2,8.07,8.07,0,0,0-1.64,2.92,12.83,12.83,0,0,0-.57,4,11.7,11.7,0,0,0,1.28,5.49A7.42,7.42,0,0,0,194.36,232.72Z"/><path class="cls-2" d="M100.65,99h-25v12.5h25v38.57h-43a19.53,19.53,0,0,1-19.5-19.51V100.05H25.61v30.52a32,32,0,0,0,32,32h55.53V99h-12.5Z"/><path class="cls-2" d="M138.17,75H125.66v36.47h12.51v-24h37.52v43a19.53,19.53,0,0,1-19.51,19.51H125.66v12.5h30.52a32,32,0,0,0,32-32V75h-50Z"/><path class="cls-2" d="M156.18,0H100.65V49h0V61.49h37.52V49h-25V12.51h43A19.53,19.53,0,0,1,175.69,32V62h12.5V32A32,32,0,0,0,156.18,0Z"/><path class="cls-2" d="M38.12,87.54h50V49H75.64V75H38.12V32a19.53,19.53,0,0,1,19.5-19.5H88.14V0H57.62a32,32,0,0,0-32,32V87.54H38.12Z"/></g></g></svg>