<svg xmlns="http://www.w3.org/2000/svg" viewBox="0 0 136.39 136.39"><defs><style>.cls-1{fill:#f6b776;}</style></defs><g id="Capa_2" data-name="Capa 2"><g id="Layer_1" data-name="Layer 1"><path class="cls-1" d="M63,83.06H42V93.55H63V125.9H26.85a16.38,16.38,0,0,1-16.36-16.36V83.93H0v25.61a26.89,26.89,0,0,0,26.85,26.85H73.44V83.06H63Z"/><path class="cls-1" d="M94.42,63H83.93v30.6H94.42V73.44H125.9v36.1a16.38,16.38,0,0,1-16.36,16.36H83.93v10.49h25.61a26.89,26.89,0,0,0,26.85-26.85V63h-42Z"/><path class="cls-1" d="M109.54,0H63V41.09h0V51.58H94.42V41.09h-21V10.49h36.1A16.38,16.38,0,0,1,125.9,26.85V52h10.49V26.85A26.89,26.89,0,0,0,109.54,0Z"/><path class="cls-1" d="M10.49,73.44h42V41.09H42V63H10.49V26.85A16.38,16.38,0,0,1,26.85,10.49H52.46V0H26.85A26.89,26.89,0,0,0,0,26.85V73.44H10.49Z"/></g></g></svg>