<svg xmlns="http://www.w3.org/2000/svg" viewBox="0 0 44.95 43.04"><defs><style>.cls-1{fill:none;stroke:#f6b776;stroke-miterlimit:10;stroke-width:3px;}</style></defs><g id="Capa_2" data-name="Capa 2"><g id="Layer_1" data-name="Layer 1"><path class="cls-1" d="M23.77,2.3l5.36,10.88a1.43,1.43,0,0,0,1.09.78l12,1.75A1.43,1.43,0,0,1,43,18.16l-8.68,8.47a1.42,1.42,0,0,0-.41,1.27l2,12a1.44,1.44,0,0,1-2.09,1.52L23.14,35.73a1.42,1.42,0,0,0-1.33,0L11.07,41.37A1.44,1.44,0,0,1,9,39.85l2-12a1.42,1.42,0,0,0-.41-1.27L1.94,18.16a1.43,1.43,0,0,1,.79-2.45l12-1.75a1.43,1.43,0,0,0,1.09-.78L21.18,2.3A1.45,1.45,0,0,1,23.77,2.3Z"/></g></g></svg>