<svg xmlns="http://www.w3.org/2000/svg" viewBox="0 0 44 41.99"><defs><style>.cls-1{fill:#f6b776;}</style></defs><g id="Capa_2" data-name="Capa 2"><g id="Layer_1" data-name="Layer 1"><path class="cls-1" d="M23.35.84,29,12.25a1.52,1.52,0,0,0,1.14.82L42.71,14.9a1.51,1.51,0,0,1,.83,2.58l-9.11,8.87A1.54,1.54,0,0,0,34,27.69l2.15,12.54A1.51,1.51,0,0,1,34,41.82L22.7,35.9a1.51,1.51,0,0,0-1.4,0L10,41.82a1.51,1.51,0,0,1-2.19-1.59L10,27.69a1.54,1.54,0,0,0-.43-1.34L.46,17.48a1.51,1.51,0,0,1,.83-2.58l12.59-1.83A1.52,1.52,0,0,0,15,12.25L20.65.84A1.5,1.5,0,0,1,23.35.84Z"/></g></g></svg>